<mxfile host="app.diagrams.net" modified="2023-12-03T10:19:23.358Z" agent="Mozilla/5.0 (Windows NT 10.0; Win64; x64) AppleWebKit/537.36 (KHTML, like Gecko) Chrome/119.0.0.0 Safari/537.36" version="22.1.5" etag="k7T3kNSvOEKn62yP9q7z" type="github">
  <diagram name="Page-1" id="_9YKV9LzuuVjB_TER4o2">
    <mxGraphModel>
      <root>
        <mxCell id="0" />
        <mxCell id="1" parent="0" />
      </root>
    </mxGraphModel>
  </diagram>
</mxfile>
